<svg height="297.482059" viewBox="0 0 29.981977 26.459743" width="336.154726" xmlns="http://www.w3.org/2000/svg" xmlns:xlink="http://www.w3.org/1999/xlink"><clipPath id="a"><path d="m48.058594 594.21484h8.113281v.22657h-8.113281zm7.886719.22657h.226562v1.21484h-.226562zm-5.761719 1.21484h5.988281v.23047h-5.988281zm0 .23047h.226562v3.10156h-.226562zm0 3.10156h5.726562v.22656h-5.726562zm5.5.22656h.226562v1.21485h-.226562zm-5.5 1.21485h5.726562v.22656h-5.726562zm0 .22656h.226562v4.96875h-.226562zm-2.125-6.21484h.226562v11.18359h-.226562zm0 11.18359h2.351562v.22656h-2.351562zm0 0"/></clipPath><clipPath id="b"><path d="m56.828125 593.69531h2.480469v.22656h-2.480469zm2.253906.22656h.226563v1.50782h-.226563zm-2.253906 0h.226563v1.50782h-.226563zm0 1.50782h2.480469v.22656h-2.480469zm.125 1.85937h2.230469v.22656h-2.230469zm2.003906.22656h.226563v8.11329h-.226563zm-2.003906 0h.226563v8.11329h-.226563zm0 8.11329h2.230469v.22265h-2.230469zm0 0"/></clipPath><clipPath id="c"><path d="m60 594h22v12h-22zm0 0"/></clipPath><clipPath id="d"><path d="m67.179688 605.54687.07422.0312c.933594.38282 1.992188.46485 3.015625.46485 1.9375 0 3.890625-.81641 3.890625-2.70703 0-1.41797-1.261718-1.98438-2.421875-2.40625l-.863283-.30073-.734375-.31641c-.425781-.23047-.671875-.49219-.671875-.85156 0-.28125.183594-.50391.511719-.66016s.785156-.23828 1.285156-.23828c.460938 0 1.628906.21094 2.054688.41406l.164062-.0859.179688-1.44531-.09766-.0195c-.789062-.17969-1.570312-.33203-2.511718-.33203-2.152344 0-3.9375.84375-3.9375 2.67969 0 1.25781 1.265625 1.83593 2.417968 2.27734l.859375.32422.742188.32812c.4375.23829.675781.48438.675781.79688 0 .77344-.992187 1.07422-1.925781 1.07422-.558594 0-1.664063-.1875-2.433594-.57422l-.164062.0937zm11.4375-8.25781v-2.30078l-.140625-.10937-2.082032.51171v1.89844h-2.445312v1.47266h2.445312v4.7539c0 1.76563 1.367188 2.52735 3.445313 2.52735.648437 0 1.28125-.13281 1.726562-.23047l.08984-.0156v-1.39843l-.164062-.10157c-.289063.14063-.714844.28125-1.3125.28125-.867188 0-1.5625-.49218-1.5625-1.375v-4.4414h2.863281v-1.47266zm-15.832032 1.11719v-1.11719h-2.097656v8.5625h2.226563v-3.90234c0-2.04688 1.128906-3.28906 2.835937-3.28906.335938 0 .71875.0351 1.070313.14062l.148437-.10547v-1.47265l-.699219-.0937-.734375-.0352c-1.035156 0-2.070312.48828-2.683593 1.21484zm-.097656 7.21875h-1.773437v-8.10938h1.644531v1.29297h.21875l.03516-.0547c.503906-.82813 1.613281-1.4336 2.722656-1.4336l.710938.0352.496094.0664v1.12891l-.140625-.0391c-.292969-.0586-.589844-.0781-.851563-.0781-1.859375 0-3.0625 1.375-3.0625 3.51563zm10.585938-6.90234-.320313-.10938c-.558594-.15234-1.324219-.27734-1.6875-.27734-.996094 0-2.023437.3164-2.023437 1.125 0 .49218.339843.80859.789062 1.05078.226563.125.488281.22656.765625.33203l.863281.30078c1.1875.42578 2.273438.94922 2.273438 2.19141 0 1.67187-1.738281 2.48047-3.664063 2.48047-.761718 0-1.527343-.043-2.238281-.22266l-.613281-.19922.08594-1.12891.503907.20313c.6875.22266 1.4375.33203 1.878906.33203.890625 0 2.152344-.28125 2.152344-1.30078 0-.44922-.351563-.75391-.796875-.99219v-.004l-.765625-.33985-.859375-.32422c-1.195313-.45703-2.273438-.98828-2.273438-2.0664 0-1.625 1.574219-2.45313 3.710938-2.45313.691406 0 1.289062.082 1.875.19922l.480468.10156zm5.117187-3.58985v2.38281h2.867188v1.01954h-2.867188v4.66796c0 1.04688.835938 1.60157 1.789063 1.60157.476562 0 .855468-.0859 1.148437-.19141l.101563-.043v1.03906l-.683594.13282c-.285156.043-.59375.0742-.90625.0742-2.039063 0-3.21875-.73438-3.21875-2.30079v-4.98046h-2.441406v-1.01954h2.441406v-1.94531zm0 0"/></clipPath><clipPath id="e"><path d="m86 594h22v12h-22zm0 0"/></clipPath><clipPath id="f"><path d="m98.488281 601.57031c0 1.53906 1.085938 3.23047 3.507809 3.23047 2.40625 0 3.49219-1.69141 3.49219-3.23047 0-1.64453-1.30859-3.23437-3.49219-3.23437-2.207027 0-3.507809 1.58984-3.507809 3.23437zm.226563 0c0-1.51953 1.199219-3.00781 3.281246-3.00781 2.0586 0 3.26563 1.48828 3.26563 3.00781 0 1.4336-1 3.00391-3.26563 3.00391-2.281246 0-3.281246-1.57031-3.281246-3.00391zm-2.351563 0c0 2.46485 2.324219 4.47656 5.632809 4.47656 3.29297 0 5.61719-2.01171 5.61719-4.47656 0-2.61719-2.28906-4.47656-5.61719-4.47656-3.347652 0-5.632809 1.85937-5.632809 4.47656zm.226563 0c0-2.44922 2.132812-4.25 5.406246-4.25 3.25391 0 5.39063 1.80078 5.39063 4.25 0 2.30078-2.17969 4.25-5.39063 4.25-3.226559 0-5.406246-1.94922-5.406246-4.25zm-1.59375-7.10937-.101563-.0274c-1.03125-.27734-2.207031-.41015-3.195312-.41015-2.679688 0-4.863281 1.08593-4.863281 3.21875 0 1.86328 1.679687 2.59765 3.253906 3.17968l1.167969.42969c.371093.14453.714843.29297 1.003906.46485.582031.33593.9375.73828.9375 1.3164 0 1.22266-1.574219 1.7461-2.792969 1.7461-1.070312 0-2.324219-.32032-3.042969-.55079l-.148437.0977-.226563 1.62109.101563.0234c.976562.24219 2.007812.47266 3.0625.47266 2.964844 0 5.527344-.96094 5.527344-3.50781 0-1.96485-1.675782-2.79688-3.261719-3.41016l-1.171875-.4375c-.371094-.14453-.714844-.28516-1.003906-.44531-.589844-.31641-.933594-.66797-.933594-1.14844 0-1.07031 1.265625-1.40625 2.476562-1.40625 1.085938 0 1.671875.14844 2.75.46875l.144532-.0859zm-7.570313 9.62109.503907.14844c.722656.1914 1.648437.375 2.476562.375 1.195313 0 3.023438-.51563 3.023438-1.97266 0-.69531-.445313-1.16015-1.058594-1.51562-.304688-.17578-.65625-.33203-1.035156-.47657l-1.167969-.4375c-1.605469-.58984-3.105469-1.28125-3.105469-2.96093 0-1.91797 1.96875-2.98828 4.636719-2.98828.730469 0 1.5625.0703 2.359375.22265l.671875.15625-.25 1.27344-.621094-.17578c-.679687-.1836-1.234375-.26953-2.074219-.26953-1.160156 0-2.703125.32031-2.703125 1.63281 0 .61719.449219 1.02344 1.050782 1.34766.304687.16406.65625.3125 1.03125.45703l1.175781.4375c1.601562.61718 3.113281 1.40234 3.113281 3.19922 0 2.32031-2.324219 3.28125-5.300781 3.28125-.769531 0-1.527344-.125-2.269531-.29297l-.636719-.15235zm0 0"/></clipPath><clipPath id="g"><path d="m108.50391 593.36719h2.23047v.22656h-2.23047zm2.0039.22656h.22657v12.03516h-.22657zm-2.0039 0h.22656v12.03516h-.22656zm0 12.03516h2.23047v.22265h-2.23047zm0 0"/></clipPath><clipPath id="h"><path d="m111 597h20v9h-20zm0 0"/></clipPath><clipPath id="i"><path d="m128.44531 605.32031-.008-.004c-.30078-.23829-.5-.61719-.5-1.0625 0-.72657.55859-1.3086 1.23437-1.3086h.008c.68359 0 1.23828.58203 1.23828 1.32031 0 .41407-.17578.77735-.45313 1.01563l-.008.008.0625-.0898-.0508-.14063-.0625-.30078c-.0195-.14844-.0625-.27734-.12891-.37109l-.0742-.0703.1211-.0977c.082-.0937.13672-.21875.13672-.375 0-.20703-.0703-.37109-.21875-.48047-.13672-.10156-.35157-.16406-.65625-.16406l-.30078.0156-.33985.0391zm1.08594-1.16015.0352-.0352c.0469-.0625.0781-.14453.0781-.25 0-.24219-.1875-.44531-.57031-.44531h-.008l-.32032.0273v.85547h.32813c.0977 0 .19922-.0156.29297-.0508v.13281l-.10547-.0547-.19531-.0234h-.32032v.80859h-.0742v-1.66406l.13672-.0195.27735-.0156c.27734 0 .43359.0586.51953.12109.082.0547.1289.14844.1289.29688 0 .15234-.0781.25391-.19531.31641zm-.35938-1.44141c-.80859 0-1.46093.69531-1.46093 1.53516 0 .85937.65234 1.54687 1.46875 1.54687.82031.008 1.46484-.6875 1.46484-1.53516 0-.85156-.64453-1.54687-1.46484-1.54687zm.008-.26563h-.008c-.98437 0-1.78124.8086-1.78124 1.80079 0 1.01562.79687 1.80859 1.78124 1.80859.9961 0 1.77735-.79297 1.77735-1.80859 0-.99219-.78125-1.80079-1.76953-1.80079zm0 .23047c.85547 0 1.54297.69922 1.54297 1.57032 0 .89062-.6875 1.58203-1.55079 1.58203-.85937 0-1.55468-.69141-1.55468-1.58203 0-.86719.69922-1.57032 1.55468-1.57032zm-.20703.98047.10156-.008c.14844 0 .23437.0391.28125.0781.043.0391.0625.0859.0625.14063 0 .125-.10547.21094-.34375.21094h-.10156zm-9.96893-1.16406v-.84375l-1.39063-.0352c-.54297 0-1.49609.0312-2.3164.25391-.80469.21484-1.55469.63672-1.55469 1.46094 0 .99218 1.21094 1.46484 2.1289 1.46484 2.00782 0 3.13282-.96875 3.13282-2.30078zm-.23047-.62109v.62109c0 1.15625-.96094 2.07422-2.90235 2.07422-.91015 0-1.90234-.46485-1.90234-1.23828 0-.64844.58203-1.02344 1.38672-1.24219.78906-.21094 1.71484-.24609 2.25781-.24609zm-.008-1.3711-.94141-.0273-1.0625-.004c-2.02344 0-5.14453.63672-5.14453 2.85938 0 1.92187 1.74219 2.70703 4.08594 2.70703 1.625 0 2.66796-.60156 3.21875-1.09766l.0625-.0586v.96484h1.98046l.11329-.1289c-.0391-.23829-.082-.67188-.082-1.6211v-3.44531c0-2.35156-1.32031-3.5625-4.46875-3.5625-1.39062 0-2.60156.33203-3.61328.79687l-.0703.0312.11328 1.38672.17578.0859c.78125-.51172 1.97266-.83203 3.07813-.83203 1.70312 0 2.38672.53516 2.53125 1.58203zm.44531 5.11719v-1.07813h-.19922l-.0312.0273c-.45703.49219-1.48828 1.24219-3.27734 1.24219-2.33204 0-3.85938-.77344-3.85938-2.48047 0-1.96485 2.82813-2.63282 4.91797-2.63282l1.05859.008 1.17969.0273v-.11337c0-1.51563-.74609-2.28906-2.78906-2.28906-1 0-2.07031.25-2.875.67968l-.16797.0977-.0898-1.04687.70312-.28125c.8125-.28125 1.73047-.46485 2.74609-.46485 3.0625 0 4.24219 1.14844 4.24219 3.33594v3.44531l.0273 1.08985.0469.43359zm5.32031-7.21875v-1.11719h-2.09375v8.5625h2.22656v-3.90234c0-2.04688 1.12891-3.28906 2.83594-3.28906.33594 0 .72266.0351 1.07031.14062l.14844-.10547v-1.47265l-.69922-.0937-.73437-.0352c-1.03516 0-2.06641.48828-2.6836 1.21484zm-.0937 7.21875h-1.77344v-8.10938h1.64063v1.29297h.21875l.0352-.0547c.51172-.82813 1.61719-1.4336 2.72657-1.4336l.71093.0352.4961.0664v1.12891l-.14063-.0391c-.29297-.0586-.58984-.0781-.85156-.0781-1.85937 0-3.0625 1.375-3.0625 3.51563zm5.44141-.27344-.008.008c-.19531.13672-.43359.21485-.6914.21485-.25391 0-.4961-.082-.69141-.22266h.48438v-.80469h.0937c.1914 0 .26171.0508.29687.23438.0312.23828.082.43359.12891.49609l.0273.0742zm-.20313-.22656-.0312-.0859-.0586-.30078-.0664-.19141-.10156-.125.043.008c.0898.0156.18359.10156.21875.35937l.0703.33203v.004zm0 0"/></clipPath><symbol id="j" overflow="visible"/><g transform="translate(82.408341 -152.23115)"><g fill="#636157" transform="matrix(.35277778 0 0 .35277778 19.953005 -23.981528)"><use height="100%" width="100%" x="519.70367" xlink:href="#j" y="606.74512"/><use height="100%" width="100%" x="533.09027" xlink:href="#j" y="626.24512"/><use height="100%" width="100%" x="530.78931" xlink:href="#j" y="633.74512"/><use height="100%" width="100%" x="523.6709" xlink:href="#j" y="641.24512"/><use height="100%" width="100%" x="533.07471" xlink:href="#j" y="648.74512"/><use height="100%" width="100%" x="517.3739" xlink:href="#j" y="656.24512"/><use height="100%" width="100%" x="524.89252" xlink:href="#j" y="663.74512"/><use height="100%" width="100%" x="525.87292" xlink:href="#j" y="671.24512"/><use height="100%" width="100%" x="511.9133" xlink:href="#j" y="678.74512"/><use height="100%" width="100%" x="536.47607" xlink:href="#j" y="686.24512"/><use height="100%" width="100%" x="532.6955" xlink:href="#j" y="693.74512"/><use height="100%" width="100%" x="534.34253" xlink:href="#j" y="701.24512"/></g><path d="m-67.169994 158.95873c0 3.64078-2.951758 6.59254-6.593913 6.59254s-6.593913-2.95176-6.593913-6.59254c0-3.64215 2.951758-6.59529 6.593913-6.59529s6.593913 2.95314 6.593913 6.59529zm0 0" fill="#ee2821"/><path d="m-82.276049 165.60226c3.146061 3.56498 7.882378 3.57049 7.882378 3.57049s2.411567.23289 6.909484-.9095c3.711057-.94533 5.999979-.99219 5.999979-.99219 4.780415-.0648 7.675672 2.37849 7.675672 2.37849-2.462554-2.60311-5.771225-3.50021-7.427626-3.55396-1.802473-.0606-4.643989.54295-6.569108.95912l-1.409733.31557c-.461643.10335-.921908.20257-1.395953.29076-.94809.17639-1.951302.30869-3.139171.339-3.808898.0992-8.525922-2.39778-8.525922-2.39778zm0 3.07991c3.146061 3.56499 7.882378 3.56912 7.882378 3.56912s2.411567.23427 6.909484-.9095c3.711057-.94396 5.999979-.99081 5.999979-.99081 4.780415-.0648 7.675672 2.37573 7.675672 2.37573-2.462554-2.59898-5.771225-3.49608-7.427626-3.5512-1.802473-.0606-4.643989.54295-6.569108.95911l-1.409733.31695c-.461643.10198-.921908.2012-1.395953.28939-.94809.17639-1.951302.30731-3.139171.33762-3.808898.1006-8.525922-2.39641-8.525922-2.39641zm0 0" fill="#ee2821"/><path d="m-81.7207 178.48416h.751031v-1.83279h1.9389v-.5085h-1.9389v-1.17547h2.031228v-.50849h-2.782259zm0 0" fill="#47453d"/><g clip-path="url(#a)" transform="matrix(.35277778 0 0 .35277778 -98.714667 -35.206848)"><path d="m48.171875 605.73828h2.128906v-5.19531h5.496094v-1.44141h-5.496094v-3.33203h5.757813v-1.44141h-7.886719zm0 0" fill="#4a4547"/></g><path d="m-77.831876 174.27563h-.795128v.61185h.795128zm-.751031 4.20853h.706934v-2.94074h-.706934zm0 0" fill="#47453d"/><g clip-path="url(#b)" transform="matrix(.35277778 0 0 .35277778 -98.714667 -35.206848)"><path d="m59.195313 593.80859h-2.253907v1.73438h2.253907zm-2.128907 11.92969h2.003907v-8.33594h-2.003907zm0 0" fill="#4a4547"/></g><path d="m-77.265502 178.48416h.705555v-1.3367c0-.73863.412034-1.20027 1.040419-1.20027.119889 0 .260449.011.389985.0524v-.48507l-.21084-.0275-.254937-.0124c-.403765 0-.808908.2191-.994944.52503h-.01516v-.45613h-.660081zm2.291677-.0937c.322461.13229.689019.16123 1.048687.16123.682129 0 1.332563-.28663 1.332563-.91501 0-.46992-.413411-.66146-.828201-.81029l-.304546-.10611c-.09646-.0358-.187413-.073-.264583-.11575-.154341-.0827-.257694-.18466-.257694-.33487 0-.24116.315571-.35691.673861-.35691.166743 0 .584288.0758.742763.1502l.05926-.47266c-.276986-.0634-.548459-.11576-.876432-.11576-.756543 0-1.349099.2949-1.349099.90537 0 .41204.413411.60634.8282.76619l.303169.11438.265961.11851c.155719.0841.259071.18053.259071.31557 0 .31695-.396875.41893-.719335.41893-.202572 0-.598069-.0675-.876433-.20671zm4.963694-2.84703h-1.010102v-.85162l-.704178.17363v.67799h-.862652v.4396h.862652v1.71703c0 .58843.449241.85163 1.175467.85163.22462 0 .44235-.0455.600825-.0799v-.46026c-.106109.0524-.263206.10336-.480936.10336-.321083 0-.591178-.18466-.591178-.52504v-1.60679h1.010102zm0 0" fill="#47453d"/><g clip-path="url(#c)" transform="matrix(.35277778 0 0 .35277778 -98.714667 -35.206848)"><g clip-path="url(#d)"><path d="m60.800781 605.73828h2v-3.78906c0-2.09375 1.167969-3.40235 2.949219-3.40235.339844 0 .738281.0312 1.105469.14844v-1.375l-.597656-.0781-.722657-.0352c-1.144531 0-2.292968.62109-2.820312 1.48828h-.04297v-1.29297h-1.871094zm6.496094-.26562c.914063.375 1.953125.45703 2.972656.45703 1.933594 0 3.777344-.8125 3.777344-2.59375 0-1.33203-1.171875-1.875-2.347656-2.29688l-.863281-.30078c-.273438-.10156-.53125-.20703-.75-.32812-.4375-.23438-.730469-.52344-.730469-.94922 0-.6836.894531-1.01172 1.910156-1.01172.472656 0 1.65625.21484 2.105469.42578l.167969-1.33984c-.785157-.17969-1.554688-.32813-2.484375-.32813-2.144532 0-3.824219.83594-3.824219 2.56641 0 1.16797 1.171875 1.71875 2.347656 2.17187l.859375.32422.753906.33594c.441407.23828.734375.51172.734375.89453 0 .89844-1.125 1.1875-2.039062 1.1875-.574219 0-1.695313-.19141-2.484375-.58594zm14.070313-8.07032h-2.863282v-2.41406l-1.996093.49219v1.92187h-2.445313v1.2461h2.445313v4.86718c0 1.66797 1.273437 2.41407 3.332031 2.41407.636719 0 1.253906-.12891 1.703125-.22657v-1.30468c-.300781.14843-.746094.29297-1.363281.29297-.910157 0-1.675782-.52344-1.675782-1.48829v-4.55468h2.863282zm0 0" fill="#4a4547"/></g></g><path d="m-65.249009 174.5347c-.359668-.0965-.770323-.14194-1.116211-.14194-.943956 0-1.675695.37896-1.675695 1.09417 0 .62562.560862.87643 1.121723 1.08313l.412034.15296c.132292.051.254937.10474.359668.16675.21084.12127.3514.27423.3514.49885 0 .47267-.599447.65594-1.025261.65594-.383094 0-.830957-.11437-1.085894-.19568l-.07441.53744c.34451.0854.702799.16536 1.070736.16536 1.048687 0 1.909961-.339 1.909961-1.19751 0-.66284-.56224-.94947-1.12448-1.16582l-.414789-.15434c-.129535-.051-.253559-.10198-.35829-.15848-.209462-.113-.350021-.24805-.350021-.44097 0-.4203.494715-.53606.913639-.53606.389984 0 .599446.0524.982541.16812zm1.318782 2.47909c0-.55948.442351-1.10105 1.197514-1.10105.748277 0 1.192005.54157 1.192005 1.10105 0 .52366-.367937 1.09968-1.192005 1.09968-.829578 0-1.197514-.57602-1.197514-1.09968zm-.749652 0c0 .8406.79375 1.53927 1.947166 1.53927 1.146528 0 1.941657-.69867 1.941657-1.53927 0-.89434-.77997-1.53927-1.941657-1.53927-1.167197 0-1.947166.64493-1.947166 1.53927zm0 0" fill="#47453d"/><g clip-path="url(#e)" transform="matrix(.35277778 0 0 .35277778 -98.714667 -35.206848)"><g clip-path="url(#f)"><path d="m94.863281 594.54297c-1.019531-.27344-2.183593-.40235-3.164062-.40235-2.675781 0-4.75 1.07422-4.75 3.10157 0 1.77343 1.589844 2.48437 3.179687 3.07031l1.167969.43359c.375.14453.722656.29688 1.019531.47266.597657.34375.996094.77734.996094 1.41406 0 1.33985-1.699219 1.85938-2.90625 1.85938-1.085937 0-2.355469-.32422-3.078125-.55469l-.210937 1.52344c.976562.24218 1.992187.46875 3.035156.46875 2.972656 0 5.414062-.96094 5.414062-3.39453 0-1.87891-1.59375-2.69141-3.1875-3.30469l-1.175781-.4375c-.367187-.14453-.71875-.28906-1.015625-.44922-.59375-.32031-.992187-.70313-.992187-1.25 0-1.19141 1.402343-1.51953 2.589843-1.51953 1.105469 0 1.699219.14844 2.785157.47656zm3.738282 7.02734c0-1.58594 1.253906-3.12109 3.394527-3.12109 2.1211 0 3.37891 1.53515 3.37891 3.12109 0 1.48438-1.04297 3.11719-3.37891 3.11719-2.351559 0-3.394527-1.63281-3.394527-3.11719zm-2.125 0c0 2.38281 2.25 4.36328 5.519527 4.36328 3.25 0 5.50391-1.98047 5.50391-4.36328 0-2.53515-2.21094-4.36328-5.50391-4.36328-3.30859 0-5.519527 1.82813-5.519527 4.36328zm0 0" fill="#4a4547"/></g></g><path d="m-60.396936 178.48416h.706932v-4.32429h-.706932zm0 0" fill="#47453d"/><g clip-path="url(#g)" transform="matrix(.35277778 0 0 .35277778 -98.714667 -35.206848)"><path d="m108.61719 605.73828h2.0039v-12.25781h-2.0039zm0 0" fill="#4a4547"/></g><path d="m-55.481475 178.48416h.705556v-1.3367c0-.73863.412034-1.20027 1.040419-1.20027.119888 0 .261828.011.389985.0524v-.48507l-.210841-.0275-.254935-.0124c-.403765 0-.807533.2191-.996322.52503h-.01517v-.45613h-.658703zm2.22553-.17639v-.28525h.07304c.08543 0 .128157.0317.143316.11713.01379.0868.02893.14607.0441.16812h.111619c-.01101-.022-.0248-.0606-.04272-.16399-.01242-.0978-.05237-.1502-.110243-.16123v-.006c.07166-.0207.129536-.073.129536-.16123 0-.0634-.02067-.10749-.06064-.13643-.03996-.0289-.104729-.051-.208083-.051l-.101977.005-.08406.01v.66421zm.110244-.84887h.0028c.265959 0 .4768.22462.4768.50574 0 .27974-.210841.50436-.4768.5016-.264584 0-.47818-.22186-.47818-.50574 0-.27698.213596-.5016.475421-.5016zm.0028-.0923h-.0028c-.325216 0-.587044.26596-.587044.59393 0 .33624.261828.59807.587044.59807.327974 0 .587046-.26183.587046-.59807 0-.32797-.259072-.59393-.584288-.59393zm-3.631195-.0248c0 .4396-.367936.77171-1.063847.77171-.32246 0-.711066-.16537-.711066-.4768 0-.51815.942576-.565 1.325672-.565l.449241.011zm-2.0519-1.12861c.283877-.18603.711069-.30041 1.107944-.30041.702801 0 .943956.25907.943956.76757l-.374826-.01-.374827-.003c-.726224 0-1.774913.23014-1.774913.96877 0 .64078.577399.91501 1.401466.91501.643541 0 1.018367-.27147 1.182356-.44924h.01517v.38172h.658699c-.01379-.0868-.02893-.24254-.02893-.5774v-1.21543c0-.80064-.440973-1.21681-1.536514-1.21681-.485069 0-.905368.11576-1.258146.27699zm5.570029 1.72806v-.22462l.07579-.007c.118512 0 .16123.0593.16123.11713 0 .0813-.07304.11438-.16123.11438zm0 0" fill="#47453d"/><g clip-path="url(#h)" transform="matrix(.35277778 0 0 .35277778 -98.714667 -35.206848)"><g clip-path="url(#i)"><path d="m122.55078 605.73828h2v-3.78906c0-2.09375 1.16797-3.40235 2.94922-3.40235.33984 0 .74219.0312 1.10547.14844v-1.375l-.59766-.0781-.72265-.0352c-1.14453 0-2.28907.62109-2.82422 1.48828h-.043v-1.29297h-1.86719zm6.30859-.5v-.80859h.20704c.24218 0 .36328.0898.40625.33203.0391.24609.082.41406.125.47656h.3164c-.0312-.0625-.0703-.17187-.12109-.46484-.0352-.27735-.14844-.42578-.3125-.45703v-.0156c.20312-.0586.36719-.20703.36719-.45703 0-.17969-.0586-.30469-.17188-.38672-.11328-.082-.29687-.14453-.58984-.14453l-.28907.0156-.23828.0273v1.88281zm.3125-2.40625h.008c.7539 0 1.35156.63672 1.35156 1.43359 0 .79297-.59766 1.42969-1.35156 1.42188-.75 0-1.35547-.62891-1.35547-1.43359 0-.78516.60547-1.42188 1.34765-1.42188zm.008-.26172h-.008c-.92187 0-1.66406.75391-1.66406 1.6836 0 .95312.74219 1.69531 1.66406 1.69531.92969 0 1.66407-.74219 1.66407-1.69531 0-.92969-.73438-1.6836-1.65625-1.6836zm-10.29315-.07031c0 1.24609-1.04297 2.1875-3.01563 2.1875-.91406 0-2.01562-.46875-2.01562-1.35156 0-1.46875 2.67187-1.60157 3.75781-1.60157l1.27344.0312zm-5.81641-3.19922c.80469-.52734 2.01563-.85156 3.14063-.85156 1.99219 0 2.67578.73437 2.67578 2.17578l-1.0625-.0273-1.0625-.008c-2.05859 0-5.03125.65235-5.03125 2.7461 0 1.8164 1.63672 2.59375 3.97266 2.59375 1.82421 0 2.88671-.76953 3.35156-1.27344h.043v1.08203h1.86718c-.0391-.24609-.082-.6875-.082-1.63672v-3.44531c0-2.26953-1.25-3.44922-4.35547-3.44922-1.375 0-2.5664.32813-3.5664.78516zm15.78906 4.89844v-.63672l.21485-.0195c.33594 0 .45703.16797.45703.33203 0 .23047-.20703.32422-.45703.32422zm0 0" fill="#4a4547"/></g></g></g></svg>